<?xml version="1.0" standalone="no"?>
<!DOCTYPE svg PUBLIC "-//W3C//DTD SVG 20010904//EN"
 "http://www.w3.org/TR/2001/REC-SVG-20010904/DTD/svg10.dtd">
<svg version="1.0" xmlns="http://www.w3.org/2000/svg"
 width="800.000000pt" height="800.000000pt" viewBox="0 0 800.000000 800.000000"
 preserveAspectRatio="xMidYMid meet">

<g transform="translate(0.000000,800.000000) scale(0.100000,-0.100000)"
fill="#000000" stroke="none">
<path d="M3885 6434 c-547 -57 -996 -344 -1254 -801 -28 -50 -58 -109 -67
-130 -8 -21 -19 -47 -24 -58 -23 -51 -61 -180 -81 -280 -32 -157 -32 -453 0
-600 59 -265 146 -447 343 -720 72 -99 205 -286 249 -350 27 -38 82 -117 124
-175 41 -58 108 -151 147 -208 290 -408 303 -426 366 -469 83 -56 136 -66 341
-61 157 3 169 5 228 32 94 43 123 77 397 470 16 22 71 100 123 173 51 72 112
159 136 192 23 33 126 179 228 323 205 290 235 339 296 478 92 210 124 370
124 620 0 137 -5 199 -21 284 -93 479 -396 886 -822 1105 -62 32 -122 61 -133
64 -11 3 -60 20 -110 37 -152 52 -444 89 -590 74z m306 -785 c275 -68 485
-265 580 -544 22 -63 24 -87 24 -235 0 -154 -2 -170 -28 -245 -38 -111 -79
-179 -257 -429 -85 -119 -210 -294 -277 -389 -67 -95 -145 -205 -173 -244 -29
-40 -57 -73 -63 -73 -7 0 -28 24 -47 53 -35 52 -57 84 -243 344 -54 76 -157
221 -229 323 -71 102 -136 192 -143 200 -24 28 -78 135 -102 205 -33 94 -46
226 -34 340 51 483 521 812 992 694z"/>
<path d="M3835 2257 c-143 -62 -222 -152 -261 -300 -30 -113 -3 -243 71 -342
184 -245 561 -227 720 35 53 87 71 189 50 294 -28 150 -115 254 -264 314 -76
31 -243 30 -316 -1z"/>
</g>
</svg>
